<?xml version="1.0" encoding="UTF-8" standalone="no"?>
<svg width="73px" height="56px" viewBox="0 0 73 56" version="1.1" xmlns="http://www.w3.org/2000/svg" xmlns:xlink="http://www.w3.org/1999/xlink" xmlns:sketch="http://www.bohemiancoding.com/sketch/ns">
    <!-- Generator: Sketch 3.3.3 (12081) - http://www.bohemiancoding.com/sketch -->
    <title>Fill 36</title>
    <desc>Created with Sketch.</desc>
    <defs></defs>
    <g id="Page-1" stroke="none" stroke-width="1" fill="none" fill-rule="evenodd" sketch:type="MSPage">
        <path d="M49.9702,43.2995 C49.9702,39.5375 48.9495,36.0135 47.1809,32.9843 L64.4962,32.9843 L60.3099,22.829 L49.8658,22.829 C49.3154,24.0755 47.7764,27.0463 44.5882,29.9193 C44.5882,29.9193 39.7425,34.0567 34.9964,34.6701 C37.8488,36.4942 39.7547,39.6635 39.7547,43.2995 C39.7547,48.9731 35.1573,53.5714 29.4856,53.5714 C23.812,53.5714 19.2146,48.9731 19.2146,43.2995 C19.2146,37.8366 23.4808,33.3832 28.8619,33.0614 L28.8383,33.0464 C28.9155,33.0407 29.8064,32.9946 30.5552,32.9448 C41.3709,32.386 49.9702,23.4423 49.9702,12.4865 C49.9702,8.7235 48.9495,5.2014 47.1809,2.1713 L64.4962,2.1713 L60.3099,-7.984 L30.1018,-7.984 C29.8967,-7.9897 29.6925,-8 29.4856,-8 C18.1703,-8 9,1.1722 9,12.4865 C9,17.78 11.0226,22.59 14.319,26.2269 C17.2616,22.892 21.4469,21.5646 23.8769,21.0547 C21.0782,19.2212 19.2146,16.0801 19.2146,12.4865 C19.2146,6.8129 23.812,2.2155 29.4856,2.2155 C35.1573,2.2155 39.7547,6.8129 39.7547,12.4865 C39.7547,16.1253 37.8553,19.3163 35.003,21.1404 C34.9786,21.1592 34.9673,21.1742 34.9334,21.1977 C34.7857,21.2909 34.6267,21.3812 34.4621,21.4677 C34.3144,21.5505 34.1629,21.6201 34.0134,21.6954 C34.0068,21.6982 34.0011,21.701 33.9964,21.7039 C33.6916,21.8525 33.3812,21.9861 33.0604,22.1056 C32.4009,22.3614 31.8111,22.5486 31.5279,22.6154 C30.9305,22.7575 30.1018,22.829 30.1018,22.829 C29.8967,22.8224 29.6925,22.8139 29.4856,22.8139 C29.3153,22.8139 29.146,22.8186 28.9785,22.8186 C28.9202,22.8224 28.8619,22.8233 28.8035,22.8252 C28.6944,22.829 28.5853,22.8309 28.4762,22.8384 C28.4037,22.8431 28.3341,22.8478 28.2607,22.8516 C28.1676,22.8572 28.0745,22.8619 27.9804,22.8713 C27.8995,22.8741 27.8214,22.8807 27.7424,22.8892 C27.6568,22.8958 27.5712,22.9033 27.4856,22.9127 C27.4037,22.9184 27.3181,22.9296 27.2325,22.9372 C27.1563,22.9485 27.0792,22.956 27.0011,22.9654 C26.9117,22.9748 26.8214,22.987 26.7301,22.9983 C26.6615,23.0096 26.5928,23.0181 26.5251,23.0275 C26.4282,23.0416 26.3303,23.0576 26.2353,23.0736 C26.1742,23.0802 26.1177,23.0915 26.0585,23.1018 C25.954,23.1197 25.8477,23.1366 25.7424,23.1545 C25.7,23.1648 25.6558,23.1724 25.6135,23.1799 C25.495,23.2043 25.3736,23.2288 25.2551,23.2523 C25.24,23.2561 25.2221,23.258 25.2071,23.2617 C15.9464,25.2298 9,33.4528 9,43.2995 C9,54.6138 18.1703,63.7851 29.4856,63.7851 C40.7989,63.7851 49.9702,54.6138 49.9702,43.2995" id="Fill-36" fill="#FFFFFF" sketch:type="MSShapeGroup" transform="translate(36.748100, 27.892550) rotate(270.000000) translate(-36.748100, -27.892550) "></path>
    </g>
</svg>