<?xml version="1.0" encoding="UTF-8" standalone="no"?>
<svg width="85px" height="23px" viewBox="0 0 85 23" version="1.1" xmlns="http://www.w3.org/2000/svg" xmlns:xlink="http://www.w3.org/1999/xlink" xmlns:sketch="http://www.bohemiancoding.com/sketch/ns">
    <!-- Generator: Sketch 3.3.3 (12081) - http://www.bohemiancoding.com/sketch -->
    <title>gabb</title>
    <desc>Created with Sketch.</desc>
    <defs></defs>
    <g id="Page-1" stroke="none" stroke-width="1" fill="none" fill-rule="evenodd" sketch:type="MSPage">
        <g id="gabb" sketch:type="MSLayerGroup" transform="translate(42.500000, 12.000000) rotate(270.000000) translate(-42.500000, -12.000000) translate(30.500000, -30.500000)" fill="#FFFFFF">
            <path d="M2.5748,2.9689 C2.5748,3.4816 2.6877,3.8984 2.9144,4.2154 C3.143,4.5325 3.5635,4.6905 4.1769,4.6905 C4.4826,4.6905 4.7376,4.6482 4.9417,4.5626 C5.143,4.4807 5.3067,4.3659 5.4318,4.222 C5.5551,4.079 5.6416,3.9087 5.6924,3.7102 C5.7395,3.5127 5.7658,3.2963 5.7658,3.0574 L5.7658,2.1373 L2.5748,2.1373 L2.5748,2.9689 Z M7.2503,2.7469 C7.2503,3.3415 7.3556,3.7723 7.5692,4.0442 C7.7799,4.317 8.1393,4.4534 8.6454,4.4534 C9.1496,4.4534 9.5052,4.3283 9.716,4.0818 C9.921,3.8344 10.0255,3.444 10.0255,2.9087 L10.0255,2.1373 L7.2503,2.1373 L7.2503,2.7469 Z M11.5984,3.5767 C11.5984,4.0122 11.5542,4.4158 11.4657,4.7874 C11.3754,5.158 11.2277,5.477 11.0208,5.7441 C10.8119,6.0113 10.5353,6.2192 10.1882,6.3678 C9.843,6.5165 9.4168,6.5917 8.9116,6.5917 C8.3378,6.5917 7.8467,6.4591 7.4347,6.1919 C7.0236,5.9238 6.7442,5.5212 6.5974,4.9878 L6.5673,4.9878 C6.4864,5.5814 6.2352,6.0499 5.8109,6.3989 C5.3839,6.7451 4.8156,6.9172 4.1026,6.9172 C3.6886,6.9172 3.2916,6.8627 2.9144,6.7554 C2.5381,6.6454 2.2089,6.4591 1.9276,6.1976 C1.6453,5.936 1.4215,5.5927 1.2521,5.1731 C1.0847,4.7535 1,4.2305 1,3.6068 L1,0 L11.5984,0 L11.5984,3.5767 Z" id="Fill-37" sketch:type="MSShapeGroup"></path>
            <path d="M4.9925,12.1656 L9.7583,11.1412 L9.7583,11.1129 L4.9925,10.0885 L4.9925,12.1656 Z M11.5974,12.4469 L1,15.2522 L1,13.0245 L3.2408,12.5372 L3.2408,9.7159 L1,9.2267 L1,7 L11.5974,9.8053 L11.5974,12.4469 Z" id="Fill-38" sketch:type="MSShapeGroup"></path>
            <path d="M11.5984,18.1373 L7.5476,18.1373 L7.5476,20.6322 L11.5984,20.6322 L11.5984,22.7695 L1,22.7695 L1,20.6322 L5.7047,20.6322 L5.7047,18.1373 L1,18.1373 L1,16 L11.5984,16 L11.5984,18.1373 Z" id="Fill-39" sketch:type="MSShapeGroup"></path>
            <path d="M11.5984,24 L11.5984,26.1383 L1,26.1383 L1,24 L11.5984,24 Z" id="Fill-40" sketch:type="MSShapeGroup"></path>
            <path d="M4.9925,32.1647 L9.7583,31.1412 L9.7583,31.1129 L4.9925,30.0885 L4.9925,32.1647 Z M11.5974,32.4478 L1,35.2522 L1,33.0273 L3.2408,32.5382 L3.2408,29.7169 L1,29.2277 L1,27 L11.5974,29.8062 L11.5974,32.4478 Z" id="Fill-41" sketch:type="MSShapeGroup"></path>
            <path d="M2.5748,41.9699 C2.5748,42.4835 2.6877,42.8975 2.9144,43.2164 C3.143,43.5315 3.5635,43.6905 4.1769,43.6905 C4.4826,43.6905 4.7376,43.65 4.9417,43.5644 C5.143,43.4807 5.3067,43.3659 5.4318,43.2239 C5.5551,43.08 5.6416,42.9097 5.6924,42.7121 C5.7395,42.5136 5.7658,42.2963 5.7658,42.0583 L5.7658,41.1373 L2.5748,41.1373 L2.5748,41.9699 Z M7.2503,41.7469 C7.2503,42.3405 7.3556,42.7733 7.5692,43.0442 C7.7799,43.318 8.1393,43.4534 8.6454,43.4534 C9.1496,43.4534 9.5052,43.3283 9.716,43.0828 C9.921,42.8354 10.0255,42.4431 10.0255,41.9106 L10.0255,41.1373 L7.2503,41.1373 L7.2503,41.7469 Z M11.5984,42.5776 C11.5984,43.0122 11.5542,43.4158 11.4657,43.7893 C11.3754,44.158 11.2277,44.4779 11.0208,44.7451 C10.8119,45.0104 10.5353,45.2192 10.1882,45.3688 C9.843,45.5174 9.4168,45.5927 8.9116,45.5927 C8.3378,45.5927 7.8467,45.4572 7.4347,45.19 C7.0236,44.9238 6.7442,44.5212 6.5974,43.9887 L6.5673,43.9887 C6.4864,44.5804 6.2352,45.0518 5.8109,45.3979 C5.3839,45.7451 4.8156,45.9163 4.1026,45.9163 C3.6886,45.9163 3.2916,45.8627 2.9144,45.7545 C2.5381,45.6444 2.2089,45.46 1.9276,45.1976 C1.6453,44.9342 1.4215,44.5946 1.2521,44.174 C1.0847,43.7535 1,43.2295 1,42.6077 L1,39 L11.5984,39 L11.5984,42.5776 Z" id="Fill-42" sketch:type="MSShapeGroup"></path>
            <path d="M11.5984,46 L11.5984,48.1364 L2.7536,48.1364 L2.7536,51.922 L1,51.922 L1,46 L11.5984,46 Z" id="Fill-43" sketch:type="MSShapeGroup"></path>
            <path d="M4.9925,57.1666 L9.7583,56.1431 L9.7583,56.1139 L4.9925,55.0885 L4.9925,57.1666 Z M11.5974,57.4479 L1,60.2541 L1,58.0283 L3.2408,57.5382 L3.2408,54.7169 L1,54.2277 L1,52 L11.5974,54.8063 L11.5974,57.4479 Z" id="Fill-44" sketch:type="MSShapeGroup"></path>
            <path d="M4.3406,66.0461 L4.3406,66.0762 L11.5984,66.0762 L11.5984,68.0349 L1,68.0349 L1,65.6012 L8.4224,62.9887 L8.4224,62.9577 L1,62.9577 L1,61 L11.5984,61 L11.5984,63.4647 L4.3406,66.0461 Z" id="Fill-45" sketch:type="MSShapeGroup"></path>
            <path d="M9.8693,73.476 C10.2211,73.2935 10.3971,72.9577 10.3971,72.476 C10.3971,72.2079 10.3246,71.9868 10.1816,71.8128 C10.0386,71.6416 9.8053,71.5033 9.4836,71.4045 C9.1638,71.3057 8.7414,71.2361 8.223,71.1985 C7.7028,71.1571 7.0668,71.1383 6.3142,71.1383 C5.5127,71.1383 4.8646,71.1656 4.3707,71.2201 C3.8768,71.2738 3.492,71.3584 3.2202,71.4722 C2.9492,71.587 2.7658,71.73 2.6708,71.9031 C2.5767,72.0762 2.5278,72.2766 2.5278,72.5042 C2.5278,72.6924 2.5607,72.8674 2.6275,73.0292 C2.6896,73.1929 2.8194,73.334 3.0113,73.4544 C3.2051,73.572 3.477,73.667 3.8288,73.7347 C4.1788,73.8053 4.6435,73.8392 5.2164,73.8392 L5.2164,75.9765 C4.6435,75.9765 4.0979,75.9323 3.5833,75.8448 C3.0687,75.7545 2.6181,75.5889 2.2314,75.3462 C1.8467,75.1035 1.5456,74.762 1.3274,74.3227 C1.1082,73.8834 1,73.3105 1,72.6077 C1,71.8062 1.1289,71.1665 1.3857,70.6924 C1.6444,70.2192 2.0141,69.8542 2.4995,69.603 C2.985,69.349 3.5635,69.1872 4.2371,69.111 C4.9097,69.0376 5.652,69 6.4629,69 C7.2635,69 8.0048,69.0376 8.683,69.111 C9.3604,69.1872 9.9408,69.349 10.4281,69.603 C10.9116,69.8542 11.2898,70.2192 11.5626,70.6924 C11.8355,71.1665 11.97,71.8062 11.97,72.6077 C11.97,73.3697 11.8467,73.9718 11.6003,74.4111 C11.3519,74.8523 11.0368,75.1816 10.6576,75.398 C10.2748,75.6162 9.8637,75.7545 9.4243,75.8072 C8.9831,75.8617 8.5701,75.8871 8.1844,75.8871 L8.1844,73.7507 C8.9577,73.7507 9.5184,73.6595 9.8693,73.476" id="Fill-46" sketch:type="MSShapeGroup"></path>
            <path d="M4.9925,81.1665 L9.7583,80.1411 L9.7583,80.1129 L4.9925,79.0865 L4.9925,81.1665 Z M11.5974,81.4478 L1,84.2531 L1,82.0273 L3.2408,81.5372 L3.2408,78.7159 L1,78.2267 L1,76 L11.5974,78.8071 L11.5974,81.4478 Z" id="Fill-47" sketch:type="MSShapeGroup"></path>
            <path d="M21.2926,3.6284 C21.4526,3.5946 21.5956,3.5381 21.7301,3.4629 C21.8618,3.3876 21.9728,3.2907 22.0584,3.1731 C22.1468,3.0565 22.1892,2.9144 22.1892,2.7479 C22.1892,2.3547 21.9709,2.0687 21.5316,1.8956 C21.0904,1.7206 20.3651,1.6359 19.35,1.6359 C18.8646,1.6359 18.4262,1.6491 18.033,1.6792 C17.6388,1.7103 17.3039,1.7658 17.0273,1.8448 C16.7517,1.9247 16.5391,2.0376 16.3933,2.1853 C16.2456,2.333 16.1703,2.5231 16.1703,2.7582 C16.1703,2.857 16.1957,2.9652 16.2503,3.0828 C16.303,3.2004 16.382,3.3086 16.4883,3.4121 C16.5955,3.5127 16.7282,3.5993 16.8919,3.667 C17.0546,3.7366 17.2456,3.7695 17.4638,3.7695 L18.2936,3.7695 L18.2936,2.6914 L19.4977,2.6914 L19.4977,5.3368 L15.1261,5.3368 L15.1261,4.1327 L15.874,4.1327 L15.874,4.112 C15.556,3.9135 15.3302,3.6764 15.1985,3.3998 C15.0678,3.1242 15,2.7921 15,2.4064 C15,1.9069 15.0875,1.5005 15.2625,1.1853 C15.4347,0.8711 15.7056,0.6256 16.0668,0.4468 C16.4309,0.269 16.8815,0.1514 17.414,0.0903 C17.9464,0.0282 18.5664,0 19.2701,0 C19.9512,0 20.5504,0.0433 21.0659,0.1289 C21.5796,0.2164 22.0104,0.3669 22.3547,0.5767 C22.6981,0.7912 22.9578,1.0696 23.1337,1.4186 C23.3058,1.7667 23.3933,2.2023 23.3933,2.7244 C23.3933,3.6181 23.1722,4.2625 22.7292,4.6548 C22.287,5.0499 21.652,5.2456 20.827,5.2456 L20.827,3.6792 C20.9784,3.6792 21.1327,3.6623 21.2926,3.6284" id="Fill-48" sketch:type="MSShapeGroup"></path>
            <path d="M17.7893,7.6774 C17.4073,7.7018 17.0959,7.7564 16.8589,7.8354 C16.6199,7.9135 16.4459,8.0283 16.3358,8.175 C16.2258,8.3218 16.1703,8.5193 16.1703,8.7592 C16.1703,9.0019 16.2258,9.1967 16.3358,9.3434 C16.4459,9.493 16.6199,9.6068 16.8589,9.6859 C17.0959,9.7668 17.4073,9.8176 17.7893,9.8439 C18.1712,9.8712 18.635,9.8853 19.1816,9.8853 C19.7263,9.8853 20.1872,9.8712 20.5663,9.8439 C20.9445,9.8176 21.2559,9.7668 21.4967,9.6859 C21.7394,9.6068 21.9144,9.493 22.0264,9.3434 C22.1345,9.1967 22.1901,9.0019 22.1901,8.7592 C22.1901,8.5193 22.1345,8.3218 22.0264,8.175 C21.9144,8.0283 21.7394,7.9135 21.4967,7.8354 C21.2559,7.7564 20.9445,7.7018 20.5663,7.6774 C20.1872,7.6482 19.7263,7.636 19.1816,7.636 C18.635,7.636 18.1712,7.6482 17.7893,7.6774 M20.8777,6.0856 C21.397,6.143 21.842,6.2682 22.2126,6.4601 C22.5842,6.6539 22.873,6.9314 23.0809,7.2954 C23.2898,7.6586 23.3942,8.1468 23.3942,8.7592 C23.3942,9.3754 23.2898,9.8618 23.0809,10.2268 C22.873,10.5899 22.5842,10.8674 22.2126,11.0603 C21.842,11.2531 21.397,11.3783 20.8777,11.4338 C20.3603,11.4921 19.7949,11.5203 19.1816,11.5203 C18.5588,11.5203 17.9915,11.4921 17.4769,11.4338 C16.9624,11.3783 16.5183,11.2531 16.1477,11.0603 C15.777,10.8674 15.4939,10.5899 15.2963,10.2268 C15.0997,9.8618 15,9.3754 15,8.7592 C15,8.1468 15.0997,7.6586 15.2963,7.2954 C15.4939,6.9314 15.777,6.6539 16.1477,6.4601 C16.5183,6.2682 16.9624,6.143 17.4769,6.0856 C17.9915,6.0292 18.5588,6 19.1816,6 C19.7949,6 20.3603,6.0292 20.8777,6.0856" id="Fill-49" sketch:type="MSShapeGroup"></path>
            <path d="M16.2013,14.27 C16.2013,14.6651 16.2897,14.984 16.4628,15.2248 C16.6387,15.4657 16.9605,15.5889 17.4289,15.5889 C17.6632,15.5889 17.8598,15.5569 18.015,15.4929 C18.1702,15.4271 18.2944,15.3415 18.3876,15.2314 C18.4845,15.1204 18.5494,14.9906 18.5879,14.8391 C18.6246,14.6877 18.6444,14.5202 18.6444,14.3396 L18.6444,13.634 L16.2013,13.634 L16.2013,14.27 Z M19.7799,14.1006 C19.7799,14.555 19.8617,14.8862 20.0235,15.0931 C20.1872,15.3029 20.4619,15.4064 20.8476,15.4064 C21.2342,15.4064 21.5061,15.3133 21.667,15.1223 C21.826,14.9332 21.905,14.634 21.905,14.2248 L21.905,13.634 L19.7799,13.634 L19.7799,14.1006 Z M23.1082,14.7356 C23.1082,15.0706 23.0734,15.3782 23.0066,15.6613 C22.9379,15.9464 22.8241,16.1891 22.6651,16.3951 C22.5052,16.5983 22.2945,16.7592 22.0292,16.8711 C21.7648,16.984 21.4393,17.0423 21.0517,17.0423 C20.6124,17.0423 20.2361,16.9407 19.9219,16.7357 C19.6058,16.5306 19.3932,16.2248 19.2803,15.8147 L19.2568,15.8147 C19.1985,16.27 19.0047,16.6294 18.6792,16.8937 C18.3537,17.159 17.9172,17.2916 17.3725,17.2916 C17.0536,17.2916 16.7516,17.2502 16.4628,17.1656 C16.1768,17.0828 15.9238,16.9417 15.7083,16.7404 C15.492,16.54 15.3207,16.2794 15.1909,15.9577 C15.062,15.635 15,15.2371 15,14.7601 L15,12 L23.1082,12 L23.1082,14.7356 Z" id="Fill-50" sketch:type="MSShapeGroup"></path>
            <path d="M23.1083,18 L23.1083,19.635 L15,19.635 L15,18 L23.1083,18 Z" id="Fill-51" sketch:type="MSShapeGroup"></path>
            <path d="M21.7686,25.5324 L21.7686,22.6359 L19.8598,22.6359 L19.8598,25.3612 L18.5193,25.3612 L18.5193,22.6359 L16.3396,22.6359 L16.3396,25.6453 L15,25.6453 L15,21 L23.1082,21 L23.1082,25.5324 L21.7686,25.5324 Z" id="Fill-52" sketch:type="MSShapeGroup"></path>
            <path d="M19.5645,28.3171 C19.5645,28.7103 19.6585,29.0132 19.842,29.2258 C20.0273,29.4375 20.3415,29.5438 20.7809,29.5438 C21.5306,29.5438 21.905,29.1637 21.905,28.4083 L21.905,27.635 L19.5645,27.635 L19.5645,28.3171 Z M23.1092,29.0207 C23.1092,29.7018 22.9361,30.2315 22.5927,30.6106 C22.2493,30.9888 21.7235,31.1788 21.0198,31.1788 C20.4742,31.1788 20.0273,31.0687 19.6849,30.8495 C19.3396,30.6294 19.1176,30.2898 19.0207,29.8269 L18.9963,29.8269 C18.937,30.2371 18.8044,30.5344 18.6002,30.7225 C18.3942,30.9135 18.0659,31.0311 17.6124,31.0753 C17.46,31.0922 17.2954,31.1035 17.1167,31.1111 C16.9389,31.1167 16.7404,31.1252 16.5212,31.1327 C16.0913,31.1477 15.7601,31.1713 15.5334,31.1995 C15.3067,31.2475 15.1515,31.3444 15.0677,31.4968 L15,31.4968 L15,29.7253 C15.1138,29.6426 15.2437,29.5889 15.3904,29.5664 C15.539,29.5438 15.6924,29.5259 15.8533,29.5203 L17.4074,29.4751 C17.7244,29.4601 17.9756,29.382 18.1571,29.2371 C18.3387,29.0913 18.4299,28.8495 18.4299,28.509 L18.4299,27.635 L15,27.635 L15,26 L23.1092,26 L23.1092,29.0207 Z" id="Fill-53" sketch:type="MSShapeGroup"></path>
            <path d="M17.5541,35.8617 L17.5541,35.8824 L23.1082,35.8824 L23.1082,37.381 L15,37.381 L15,35.5193 L20.6774,33.5221 L20.6774,33.4967 L15,33.4967 L15,32 L23.1082,32 L23.1082,33.8824 L17.5541,35.8617 Z" id="Fill-54" sketch:type="MSShapeGroup"></path>
            <path d="M17.7893,39.6726 C17.4073,39.6999 17.0959,39.7526 16.8589,39.8326 C16.6199,39.9125 16.4459,40.0263 16.3358,40.1731 C16.2258,40.3208 16.1703,40.5155 16.1703,40.7582 C16.1703,41.001 16.2258,41.1966 16.3358,41.3424 C16.4459,41.492 16.6199,41.6049 16.8589,41.6849 C17.0959,41.7639 17.4073,41.8166 17.7893,41.8429 C18.1712,41.8702 18.635,41.8843 19.1816,41.8843 C19.7263,41.8843 20.1872,41.8702 20.5663,41.8429 C20.9445,41.8166 21.2559,41.7639 21.4967,41.6849 C21.7394,41.6049 21.9144,41.492 22.0264,41.3424 C22.1345,41.1966 22.1901,41.001 22.1901,40.7582 C22.1901,40.5155 22.1345,40.3208 22.0264,40.1731 C21.9144,40.0263 21.7394,39.9125 21.4967,39.8326 C21.2559,39.7526 20.9445,39.6999 20.5663,39.6726 C20.1872,39.6482 19.7263,39.6341 19.1816,39.6341 C18.635,39.6341 18.1712,39.6482 17.7893,39.6726 M20.8777,38.0837 C21.397,38.1392 21.842,38.2653 22.2126,38.4591 C22.5842,38.6519 22.873,38.9304 23.0809,39.2926 C23.2898,39.6576 23.3942,40.1449 23.3942,40.7582 C23.3942,41.3725 23.2898,41.8608 23.0809,42.2239 C22.873,42.587 22.5842,42.8664 22.2126,43.0584 C21.842,43.2503 21.397,43.3773 20.8777,43.4318 C20.3603,43.492 19.7949,43.5184 19.1816,43.5184 C18.5588,43.5184 17.9915,43.492 17.4769,43.4318 C16.9624,43.3773 16.5183,43.2503 16.1477,43.0584 C15.777,42.8664 15.4939,42.587 15.2963,42.2239 C15.0997,41.8608 15,41.3725 15,40.7582 C15,40.1449 15.0997,39.6576 15.2963,39.2926 C15.4939,38.9304 15.777,38.6519 16.1477,38.4591 C16.5183,38.2653 16.9624,38.1392 17.4769,38.0837 C17.9915,38.0273 18.5588,38 19.1816,38 C19.7949,38 20.3603,38.0273 20.8777,38.0837" id="Fill-55" sketch:type="MSShapeGroup"></path>
            <path d="M18.0546,49.9512 L21.699,49.1685 L21.699,49.1449 L18.0546,48.3604 L18.0546,49.9512 Z M23.1082,50.1666 L15,52.3134 L15,50.6106 L16.7131,50.2362 L16.7131,48.0772 L15,47.7037 L15,46 L23.1082,48.1468 L23.1082,50.1666 Z" id="Fill-56" sketch:type="MSShapeGroup"></path>
            <path d="M16.2013,55.2718 C16.2013,55.666 16.2897,55.9849 16.4628,56.2276 C16.6387,56.4685 16.9605,56.5889 17.4289,56.5889 C17.6632,56.5889 17.8598,56.5588 18.015,56.4948 C18.1702,56.428 18.2944,56.3424 18.3876,56.2323 C18.4845,56.1213 18.5494,55.9915 18.5879,55.8391 C18.6246,55.6886 18.6444,55.523 18.6444,55.3415 L18.6444,54.6378 L16.2013,54.6378 L16.2013,55.2718 Z M19.7799,55.1035 C19.7799,55.5569 19.8617,55.8871 20.0235,56.0969 C20.1872,56.3048 20.4619,56.4083 20.8476,56.4083 C21.2342,56.4083 21.508,56.3142 21.667,56.1242 C21.826,55.936 21.905,55.6369 21.905,55.2276 L21.905,54.6378 L19.7799,54.6378 L19.7799,55.1035 Z M23.1082,55.7385 C23.1082,56.0715 23.0734,56.38 23.0066,56.6641 C22.9379,56.9482 22.825,57.1928 22.6651,57.396 C22.5052,57.6011 22.2945,57.7601 22.0292,57.8721 C21.7648,57.9859 21.4393,58.0442 21.0517,58.0442 C20.6124,58.0442 20.2361,57.9435 19.9219,57.7375 C19.6058,57.5334 19.3932,57.2267 19.2803,56.8165 L19.2568,56.8165 C19.1985,57.2728 19.0047,57.6312 18.6792,57.8965 C18.3537,58.1609 17.9181,58.2935 17.3725,58.2935 C17.0536,58.2935 16.7516,58.2512 16.4628,58.1684 C16.1768,58.0875 15.9238,57.9454 15.7083,57.7422 C15.4938,57.5428 15.3207,57.2813 15.1909,56.9586 C15.062,56.6387 15,56.238 15,55.762 L15,53 L23.1082,53 L23.1082,55.7385 Z" id="Fill-57" sketch:type="MSShapeGroup"></path>
            <path d="M23.1083,59 L23.1083,60.636 L15,60.636 L15,59 L23.1083,59 Z" id="Fill-58" sketch:type="MSShapeGroup"></path>
            <path d="M21.7686,65.5306 L21.7686,62.635 L19.8598,62.635 L19.8598,65.3593 L18.5193,65.3593 L18.5193,62.635 L16.3396,62.635 L16.3396,65.6434 L15,65.6434 L15,61 L23.1082,61 L23.1082,65.5306 L21.7686,65.5306 Z" id="Fill-59" sketch:type="MSShapeGroup"></path>
            <path d="M19.5645,69.3189 C19.5645,69.7122 19.6585,70.0141 19.842,70.2267 C20.0273,70.4375 20.3415,70.5447 20.7809,70.5447 C21.5306,70.5447 21.905,70.1665 21.905,69.4102 L21.905,68.635 L19.5645,68.635 L19.5645,69.3189 Z M23.1092,70.0235 C23.1092,70.7037 22.9361,71.2333 22.5927,71.6124 C22.2493,71.9916 21.7235,72.1807 21.0198,72.1807 C20.4742,72.1807 20.0273,72.0706 19.6849,71.8505 C19.3396,71.6313 19.1176,71.2898 19.0207,70.8288 L18.9963,70.8288 C18.937,71.238 18.8044,71.5362 18.6002,71.7253 C18.3942,71.9163 18.0659,72.033 17.6124,72.0791 C17.46,72.0922 17.2954,72.1045 17.1167,72.112 C16.9389,72.1214 16.7404,72.1261 16.5212,72.1346 C16.0913,72.1515 15.7601,72.1731 15.5334,72.2023 C15.3067,72.2493 15.1515,72.3481 15.0677,72.4977 L15,72.4977 L15,70.7272 C15.1138,70.6435 15.2437,70.5908 15.3904,70.5663 C15.539,70.5447 15.6924,70.5287 15.8533,70.5221 L17.4074,70.476 C17.7244,70.4619 17.9756,70.382 18.1571,70.239 C18.3387,70.0941 18.4299,69.8523 18.4299,69.5118 L18.4299,68.635 L15,68.635 L15,67 L23.1092,67 L23.1092,70.0235 Z" id="Fill-60" sketch:type="MSShapeGroup"></path>
            <path d="M21.7686,77.1798 L21.7686,75.4083 L15,75.4083 L15,73.7714 L21.7686,73.7714 L21.7686,72 L23.1082,72 L23.1082,77.1798 L21.7686,77.1798 Z" id="Fill-61" sketch:type="MSShapeGroup"></path>
            <path d="M17.7893,79.6745 C17.4073,79.7018 17.0959,79.7526 16.8589,79.8335 C16.6199,79.9116 16.4459,80.0264 16.3358,80.1741 C16.2258,80.3218 16.1703,80.5174 16.1703,80.7573 C16.1703,81.0019 16.2258,81.1966 16.3358,81.3425 C16.4459,81.493 16.6199,81.6049 16.8589,81.6839 C17.0959,81.7658 17.4073,81.8175 17.7893,81.8429 C18.1712,81.8693 18.635,81.8843 19.1816,81.8843 C19.7263,81.8843 20.1872,81.8693 20.5663,81.8429 C20.9445,81.8175 21.2559,81.7658 21.4967,81.6839 C21.7394,81.6049 21.9144,81.493 22.0264,81.3425 C22.1345,81.1966 22.1901,81.0019 22.1901,80.7573 C22.1901,80.5174 22.1345,80.3218 22.0264,80.1741 C21.9144,80.0264 21.7394,79.9116 21.4967,79.8335 C21.2559,79.7526 20.9445,79.7018 20.5663,79.6745 C20.1872,79.6482 19.7263,79.635 19.1816,79.635 C18.635,79.635 18.1712,79.6482 17.7893,79.6745 M20.8777,78.0847 C21.397,78.1411 21.842,78.2662 22.2126,78.46 C22.5842,78.6519 22.873,78.9313 23.0809,79.2945 C23.2898,79.6567 23.3942,80.1468 23.3942,80.7573 C23.3942,81.3726 23.2898,81.8599 23.0809,82.2249 C22.873,82.588 22.5842,82.8665 22.2126,83.0603 C21.842,83.2522 21.397,83.3782 20.8777,83.4347 C20.3603,83.4921 19.7949,83.5193 19.1816,83.5193 C18.5588,83.5193 17.9915,83.4921 17.4769,83.4347 C16.9624,83.3782 16.5183,83.2522 16.1477,83.0603 C15.777,82.8665 15.4939,82.588 15.2982,82.2249 C15.0997,81.8599 15,81.3726 15,80.7573 C15,80.1468 15.0997,79.6567 15.2982,79.2945 C15.4939,78.9313 15.777,78.6519 16.1477,78.46 C16.5183,78.2662 16.9624,78.1411 17.4769,78.0847 C17.9915,78.0273 18.5588,78 19.1816,78 C19.7949,78 20.3603,78.0273 20.8777,78.0847" id="Fill-62" sketch:type="MSShapeGroup"></path>
        </g>
    </g>
</svg>