<?xml version="1.0" encoding="UTF-8" standalone="no"?>
<svg width="678px" height="260px" viewBox="0 0 678 260" version="1.1" xmlns="http://www.w3.org/2000/svg" xmlns:xlink="http://www.w3.org/1999/xlink" xmlns:sketch="http://www.bohemiancoding.com/sketch/ns">
    <!-- Generator: Sketch 3.3.3 (12081) - http://www.bohemiancoding.com/sketch -->
    <title>Slice 1</title>
    <desc>Created with Sketch.</desc>
    <defs></defs>
    <g id="Page-1" stroke="none" stroke-width="1" fill="none" fill-rule="evenodd" sketch:type="MSPage">
        <g id="g16-copy" sketch:type="MSLayerGroup" transform="translate(338.910679, 129.834445) scale(1, -1) translate(-338.910679, -129.834445) translate(0.384163, 0.393619)" fill="#211D1D">
            <path d="M260.628749,111.550925 L260.628749,148.391377 L111.741251,148.360296 L111.728156,1.08668131 L260.628749,1.08668131 L260.628749,37.9674096 L148.958215,37.9674096 L148.958215,111.550925 L260.628749,111.550925 Z M260.628749,221.985513 L111.728156,221.985513 L111.728156,148.386197 L37.3163606,148.359001 L37.308765,1.09678275 L0.0573596185,1.09678275 L0.0573596185,185.173552 L74.5321454,185.173552 L74.5321454,258.792293 L260.628749,258.792293 L260.628749,221.985513 Z M660.960908,0.069803507 C655.778899,0.069803507 651.682532,1.16710428 648.669187,3.36455494 C645.646676,5.5596745 644.04113,8.57819054 643.861718,12.4285209 L654.427412,12.4285209 C654.655279,10.7064852 655.323165,9.41389004 656.424522,8.55798766 C657.527189,7.70156727 659.004395,7.26901864 660.888881,7.26901864 C662.573002,7.26901864 663.917941,7.55535547 664.904055,8.1456419 C665.891478,8.74007251 666.379952,9.59908301 666.379952,10.7332929 C666.379952,11.5042396 666.120655,12.1270319 665.626943,12.5984322 C665.118826,13.0750128 664.456178,13.4584788 663.632452,13.753363 C662.806107,14.0498012 661.865828,14.2729394 660.786734,14.4322312 C659.70764,14.5876379 658.591877,14.7803422 657.456471,15.0059409 C655.942596,15.2842484 654.427412,15.6160417 652.924014,15.9954931 C651.408829,16.3809017 650.048175,16.9535753 648.836814,17.724004 C647.620213,18.4945622 646.648505,19.5203759 645.91383,20.8129711 C645.185704,22.1090629 644.813783,23.7693244 644.813783,25.8080013 C644.813783,27.6104599 645.217134,29.2151635 646.018597,30.6296235 C646.822679,32.0293198 647.908321,33.1974601 649.280761,34.1262741 C650.654511,35.0559947 652.271843,35.7541592 654.128828,36.2276316 C655.975336,36.7082268 657.92792,36.9465171 659.991819,36.9465171 C664.98132,36.9465171 668.797437,35.9510077 671.463743,33.9588234 C674.118262,31.9661211 675.577134,29.2409352 675.858694,25.8080013 L665.560154,25.8080013 C665.32574,27.3944446 664.722023,28.4654557 663.734599,29.0350213 C662.751105,29.5970755 661.48474,29.8757715 659.927649,29.8757715 C658.557828,29.8757715 657.390992,29.6244012 656.459881,29.1013281 C655.520912,28.5782551 655.054701,27.7763566 655.054701,26.6898048 C655.054701,26.0488816 655.27733,25.5515802 655.733064,25.1938858 C656.194036,24.8311407 656.816087,24.5230469 657.592668,24.2732307 C658.367939,24.0272996 659.274169,23.8107662 660.308737,23.6387828 C661.33021,23.4521653 662.398827,23.270987 663.500185,23.0909742 C665.053347,22.8187535 666.620914,22.4914929 668.198959,22.1090629 C669.777003,21.7219707 671.226708,21.1184748 672.524503,20.3076403 C673.826225,19.4971944 674.894843,18.3872021 675.71464,17.0092627 C676.539676,15.6301578 676.958742,13.8287352 676.958742,11.6099161 C676.958742,9.71693309 676.548843,8.03439661 675.755237,6.59571913 C674.956393,5.14020593 673.847179,3.93671059 672.423665,2.98626914 C671.00408,2.03971287 669.306864,1.31331608 667.342493,0.814460586 C665.366336,0.317159163 663.23434,0.069803507 660.960908,0.069803507 L660.960908,0.069803507 Z M606.843811,35.9261426 L617.621657,35.9261426 L617.621657,31.1694027 L617.841666,31.1694027 C619.157794,33.0730052 620.686075,34.5055959 622.401625,35.4871187 C624.122414,36.4542664 626.213813,36.9465171 628.682372,36.9465171 C630.602217,36.9465171 632.325625,36.6161484 633.83688,35.9560584 C635.337659,35.296875 636.627596,34.3953867 637.679189,33.2439526 C638.728163,32.0900579 639.529626,30.7060318 640.080959,29.1013281 C640.636222,27.4891132 640.904685,25.7119081 640.904685,23.7693244 L640.904685,1.1514341 L629.715631,1.1514341 L629.715631,21.5252518 C629.715631,23.3823618 629.25204,24.8767267 628.344501,26.0032957 C627.419937,27.1420382 626.046187,27.7065531 624.223251,27.7065531 C622.346623,27.7065531 620.843224,27.0266488 619.720914,25.6718909 C618.601223,24.3070316 618.035484,22.5471803 618.035484,20.3753717 L618.035484,1.1514341 L606.843811,1.1514341 L606.843811,35.9261426 Z M584.669996,7.94892293 C587.143794,7.94892293 588.999469,8.90609866 590.264524,10.8328827 C591.52303,12.7562995 592.152938,15.3039333 592.152938,18.4737118 C592.152938,21.6415478 591.52303,24.2018731 590.264524,26.1460108 C588.999469,28.0870404 587.143794,29.063901 584.669996,29.063901 C582.19358,29.063901 580.335286,28.0870404 579.10297,26.1460108 C577.868036,24.2018731 577.257772,21.6415478 577.257772,18.4737118 C577.257772,15.3039333 577.868036,12.7562995 579.10297,10.8328827 C580.335286,8.90609866 582.19358,7.94892293 584.669996,7.94892293 L584.669996,7.94892293 Z M584.732856,0.069803507 C581.894996,0.069803507 579.32429,0.538743208 577.007642,1.46457859 C574.697542,2.39183854 572.721386,3.68184361 571.072624,5.33550035 C569.421243,6.98319983 568.153569,8.92578351 567.259126,11.1714102 C566.364683,13.4154829 565.915497,15.8461731 565.915497,18.4737118 C565.915497,21.0927031 566.364683,23.5285736 567.259126,25.7716102 C568.153569,28.0146468 569.421243,29.9622812 571.072624,31.6134774 C572.721386,33.263767 574.697542,34.5572687 577.007642,35.4871187 C579.32429,36.4027232 581.894996,36.8726989 584.732856,36.8726989 C587.581194,36.8726989 590.149281,36.4027232 592.463309,35.4871187 C594.776028,34.5572687 596.741708,33.263767 598.364278,31.6134774 C599.989467,29.9622812 601.246664,28.0146468 602.139798,25.7716102 C603.029003,23.5285736 603.479499,21.0927031 603.479499,18.4737118 C603.479499,15.8461731 603.029003,13.4154829 602.139798,11.1714102 C601.246664,8.92578351 599.989467,6.98319983 598.364278,5.33550035 C596.741708,3.68184361 594.776028,2.39183854 592.463309,1.46457859 C590.149281,0.538743208 587.581194,0.069803507 584.732856,0.069803507 L584.732856,0.069803507 Z M551.157836,35.9261426 L562.34689,35.9261426 L562.34689,1.1514341 L551.157836,1.1514341 L551.157836,35.9261426 Z M551.157836,49.7109755 L562.34689,49.7109755 L562.34689,40.7427141 L551.157836,40.7427141 L551.157836,49.7109755 Z M540.792507,0.751261863 C539.141127,0.751261863 537.635109,0.89488355 536.288861,1.1862711 C534.941303,1.48426344 533.761371,1.98907619 532.751684,2.71301237 C531.744617,3.44355334 530.968036,4.42896129 530.421941,5.66988375 C529.870607,6.91844704 529.602144,8.46694524 529.602144,10.3280699 L529.602144,28.9991482 L524.925632,28.9991482 L524.925632,35.9261426 L529.602144,35.9261426 L529.602144,46.9240154 L540.516186,46.9240154 L540.516186,35.9261426 L546.90039,35.9261426 L546.90039,28.9991482 L540.516186,28.9991482 L540.516186,12.6955614 C540.516186,11.3367889 540.872392,10.4368546 541.579565,9.98759975 C542.289358,9.53536627 543.236184,9.30873151 544.429212,9.30873151 C544.9334,9.30873151 545.415326,9.31430025 545.873679,9.33851779 C546.329413,9.3644189 546.669904,9.36998764 546.90039,9.36998764 L546.90039,1.29350172 C546.397511,1.1514341 545.623549,1.03099391 544.594219,0.914179881 C543.570127,0.804359151 542.295906,0.751261863 540.792507,0.751261863 L540.792507,0.751261863 Z M507.000097,0.069803507 C504.172713,0.069803507 501.602006,0.538743208 499.31155,1.46457859 C497.019785,2.39183854 495.063272,3.68184361 493.443321,5.33550035 C491.819441,6.98319983 490.558316,8.92578351 489.663872,11.1714102 C488.774667,13.4154829 488.330719,15.8461731 488.330719,18.4737118 C488.330719,21.0927031 488.758952,23.5285736 489.635061,25.7716102 C490.507242,28.0146468 491.735628,29.9622812 493.335935,31.6134774 C494.940171,33.263767 496.877041,34.5572687 499.142615,35.4871187 C501.406879,36.4027232 503.938298,36.8726989 506.730323,36.8726989 C509.109831,36.8726989 511.273257,36.5463449 513.216674,35.8897516 C515.16533,35.2321222 516.85076,34.3149637 518.261178,33.136722 C519.68862,31.9661211 520.826646,30.5607265 521.694897,28.9253301 C522.569697,27.3039202 523.148532,25.511045 523.416996,23.5623745 L512.63653,23.5623745 C512.275086,25.1488179 511.617677,26.4090367 510.686565,27.3322819 C509.743667,28.2595419 508.468136,28.7319782 506.86521,28.7319782 C504.438557,28.7319782 502.632646,27.808733 501.444857,25.974934 C500.253139,24.142689 499.661208,21.6415478 499.661208,18.4737118 C499.661208,15.3530159 500.253139,12.8817904 501.444857,11.0701369 C502.632646,9.26469961 504.438557,8.35051973 506.86521,8.35051973 C510.439055,8.35051973 512.474142,10.3447761 512.97964,14.3260366 L523.690698,14.3260366 C523.599027,12.3369605 523.15377,10.4782964 522.353616,8.72841701 C521.553463,6.98319983 520.431152,5.47316478 518.990614,4.18056959 C517.547457,2.88408924 515.807024,1.87783089 513.768008,1.1514341 C511.735539,0.439153418 509.48437,0.069803507 507.000097,0.069803507 L507.000097,0.069803507 Z M474.797516,22.2800103 C474.56834,24.3536536 473.863785,26.0032957 472.670758,27.2325626 C471.481659,28.4572969 469.969094,29.063901 468.136991,29.063901 C465.993208,29.063901 464.343136,28.4572969 463.193325,27.2325626 C462.051371,26.0032957 461.293124,24.3536536 460.929061,22.2800103 L474.797516,22.2800103 Z M468.626774,0.140125036 C465.73653,0.140125036 463.126536,0.59844528 460.790245,1.53075594 C458.459192,2.45154061 456.492202,3.7465964 454.893205,5.40284325 C453.283731,7.05649998 452.048796,9.01229324 451.179235,11.2760508 C450.309674,13.5307429 449.874893,15.9822835 449.874893,18.6113762 C449.874893,21.1882783 450.309674,23.5983771 451.179235,25.8389531 C452.048796,28.0779751 453.283731,30.0261275 454.893205,31.6717549 C456.492202,33.334477 458.389784,34.6235755 460.589879,35.5518715 C462.782117,36.4740807 465.233651,36.9465171 467.934006,36.9465171 C470.456257,36.9465171 472.708736,36.5545037 474.696679,35.7891257 C476.68855,35.0145529 478.444697,33.9588234 479.953334,32.5990148 C482.052591,30.6943763 483.620159,28.2853135 484.656037,25.3613365 C485.686677,22.4459069 486.172531,19.219923 486.135863,15.6908959 L460.866201,15.6908959 C461.225026,13.3364845 462.051371,11.4769139 463.330831,10.1181414 C464.6116,8.76493758 466.426679,8.08503329 468.756422,8.08503329 C470.220533,8.08503329 471.438443,8.3870403 472.395746,9.00322785 C473.362216,9.6173433 474.090343,10.4615902 474.593222,11.5416667 L485.512503,11.5416667 C485.148439,9.96286418 484.4596,8.45528974 483.453842,7.03331848 C482.448085,5.60772107 481.164696,4.37081329 479.607605,3.32816387 C478.143494,2.28551446 476.505209,1.49436487 474.696679,0.949534904 C472.892077,0.411827741 470.863537,0.140125036 468.626774,0.140125036 L468.626774,0.140125036 Z M412.862224,35.9261426 L423.645308,35.9261426 L423.645308,31.1694027 L423.853532,31.1694027 C425.177517,33.0730052 426.700559,34.5055959 428.417419,35.4871187 C430.135589,36.4542664 432.233536,36.9465171 434.702095,36.9465171 C436.619321,36.9465171 438.342729,36.6161484 439.853984,35.9560584 C441.358692,35.296875 442.642081,34.3953867 443.696293,33.2439526 C444.750505,32.0900579 445.551968,30.7060318 446.099373,29.1013281 C446.654635,27.4891132 446.92048,25.7119081 446.92048,23.7693244 L446.92048,1.1514341 L435.728806,1.1514341 L435.728806,21.5252518 C435.728806,23.3823618 435.271763,24.8767267 434.353747,26.0032957 C433.440969,27.1420382 432.068529,27.7065531 430.236426,27.7065531 C428.361107,27.7065531 426.864257,27.0266488 425.738018,25.6718909 C424.613088,24.3070316 424.053898,22.5471803 424.053898,20.3753717 L424.053898,1.1514341 L412.862224,1.1514341 L412.862224,35.9261426 Z M374.546523,35.9261426 L385.323059,35.9261426 L385.323059,31.1694027 L385.53783,31.1694027 C386.856578,33.0730052 388.380929,34.5055959 390.103027,35.4871187 C391.814649,36.4542664 393.911287,36.9465171 396.382465,36.9465171 C398.304929,36.9465171 400.025718,36.6161484 401.535664,35.9560584 C403.049539,35.296875 404.32507,34.3953867 405.375353,33.2439526 C406.433494,32.0900579 407.228409,30.7060318 407.781052,29.1013281 C408.329767,27.4891132 408.608707,25.7119081 408.608707,23.7693244 L408.608707,1.1514341 L397.413105,1.1514341 L397.413105,21.5252518 C397.413105,23.3823618 396.956061,24.8767267 396.040665,26.0032957 C395.129197,27.1420382 393.74759,27.7065531 391.922035,27.7065531 C390.042787,27.7065531 388.547246,27.0266488 387.421007,25.6718909 C386.297387,24.3070316 385.742125,22.5471803 385.742125,20.3753717 L385.742125,1.1514341 L374.546523,1.1514341 L374.546523,35.9261426 Z M352.571765,7.94892293 C355.045562,7.94892293 356.915643,8.90609866 358.170221,10.8328827 C359.428727,12.7562995 360.057326,15.3039333 360.057326,18.4737118 C360.057326,21.6415478 359.428727,24.2018731 358.170221,26.1460108 C356.915643,28.0870404 355.045562,29.063901 352.571765,29.063901 C350.099277,29.063901 348.251459,28.0870404 347.011287,26.1460108 C345.773733,24.2018731 345.154302,21.6415478 345.154302,18.4737118 C345.154302,15.3039333 345.773733,12.7562995 347.011287,10.8328827 C348.251459,8.90609866 350.099277,7.94892293 352.571765,7.94892293 L352.571765,7.94892293 Z M352.641172,0.069803507 C349.804622,0.069803507 347.228677,0.538743208 344.914649,1.46457859 C342.605858,2.39183854 340.624463,3.68184361 338.977011,5.33550035 C337.32694,6.98319983 336.064505,8.92578351 335.166133,11.1714102 C334.27038,13.4154829 333.830361,15.8461731 333.830361,18.4737118 C333.830361,21.0927031 334.27038,23.5285736 335.166133,25.7716102 C336.064505,28.0146468 337.32694,29.9622812 338.977011,31.6134774 C340.624463,33.263767 342.605858,34.5572687 344.914649,35.4871187 C347.228677,36.4027232 349.804622,36.8726989 352.641172,36.8726989 C355.485581,36.8726989 358.053668,36.4027232 360.369006,35.4871187 C362.683034,34.5572687 364.648715,33.263767 366.271285,31.6134774 C367.892545,29.9622812 369.162838,28.0146468 370.054662,25.7716102 C370.941248,23.5285736 371.386505,21.0927031 371.386505,18.4737118 C371.386505,15.8461731 370.941248,13.4154829 370.054662,11.1714102 C369.162838,8.92578351 367.892545,6.98319983 366.271285,5.33550035 C364.648715,3.68184361 362.683034,2.39183854 360.369006,1.46457859 C358.053668,0.538743208 355.485581,0.069803507 352.641172,0.069803507 L352.641172,0.069803507 Z M314.943593,0.069803507 C312.105732,0.069803507 309.542884,0.538743208 307.252428,1.46457859 C304.959353,2.39183854 303.006768,3.68184361 301.381579,5.33550035 C299.75508,6.98319983 298.500502,8.92578351 297.60213,11.1714102 C296.715544,13.4154829 296.270287,15.8461731 296.270287,18.4737118 C296.270287,21.0927031 296.702449,23.5285736 297.575939,25.7716102 C298.44419,28.0146468 299.679125,29.9622812 301.278122,31.6134774 C302.87581,33.263767 304.819228,34.5572687 307.086111,35.4871187 C309.350375,36.4027232 311.875246,36.8726989 314.669891,36.8726989 C317.04416,36.8726989 319.208896,36.5463449 321.16148,35.8897516 C323.107517,35.2321222 324.785089,34.3149637 326.208603,33.136722 C327.625569,31.9661211 328.768833,30.5607265 329.644942,28.9253301 C330.517122,27.3039202 331.08548,25.511045 331.352635,23.5623745 L320.574789,23.5623745 C320.209416,25.1488179 319.550697,26.4090367 318.620895,27.3322819 C317.680616,28.2595419 316.407704,28.7319782 314.807397,28.7319782 C312.378125,28.7319782 310.565666,27.808733 309.384425,25.974934 C308.191397,24.142689 307.594228,21.6415478 307.594228,18.4737118 C307.594228,15.3530159 308.191397,12.8817904 309.384425,11.0701369 C310.565666,9.26469961 312.378125,8.35051973 314.807397,8.35051973 C318.373384,8.35051973 320.408472,10.3447761 320.917899,14.3260366 L331.630266,14.3260366 C331.541214,12.3369605 331.092028,10.4782964 330.286636,8.72841701 C329.493031,6.98319983 328.368101,5.47316478 326.924944,4.18056959 C325.484405,2.88408924 323.750521,1.87783089 321.711504,1.1514341 C319.675107,0.439153418 317.420009,0.069803507 314.943593,0.069803507 L314.943593,0.069803507 Z M473.629371,67.7702694 C476.101858,67.7702694 477.96801,68.7324959 479.227826,70.6543587 C480.486333,72.5775165 481.113622,75.1248913 481.113622,78.2938928 C481.113622,81.4615992 480.486333,84.0245146 479.227826,85.9683934 C477.96801,87.9161573 476.101858,88.8861541 473.629371,88.8861541 C471.158192,88.8861541 469.305136,87.9161573 468.072821,85.9683934 C466.831339,84.0245146 466.211908,81.4615992 466.211908,78.2938928 C466.211908,75.1248913 466.831339,72.5775165 468.072821,70.6543587 C469.305136,68.7324959 471.158192,67.7702694 473.629371,67.7702694 L473.629371,67.7702694 Z M473.702707,59.8924451 C470.863537,59.8924451 468.284973,60.35478 465.978802,61.2885152 C463.662155,62.2080048 461.682069,63.5030606 460.039855,65.1529617 C458.387165,66.8028628 457.120801,68.7532168 456.215881,70.9962534 C455.333224,73.2366999 454.884038,75.6701098 454.884038,78.2938928 C454.884038,80.9189709 455.333224,83.3549708 456.215881,85.5915322 C457.120801,87.8358638 458.387165,89.7784475 460.039855,91.437414 C461.682069,93.0795447 463.662155,94.3758956 465.978802,95.3044506 C468.284973,96.2317105 470.863537,96.7005207 473.702707,96.7005207 C476.53402,96.7005207 479.112583,96.2317105 481.422683,95.3044506 C483.736712,94.3758956 485.70632,93.0795447 487.334129,91.437414 C488.959318,89.7784475 490.213896,87.8358638 491.108339,85.5915322 C491.996235,83.3549708 492.444111,80.9189709 492.444111,78.2938928 C492.444111,75.6701098 491.996235,73.2366999 491.108339,70.9962534 C490.213896,68.7532168 488.959318,66.8028628 487.334129,65.1529617 C485.70632,63.5030606 483.736712,62.2080048 481.422683,61.2885152 C479.112583,60.35478 476.53402,59.8924451 473.702707,59.8924451 L473.702707,59.8924451 Z M431.057533,95.7434745 L441.77121,95.7434745 L441.77121,90.3094204 L441.970266,90.3094204 C443.214367,92.3970503 444.586808,93.9122656 446.094135,94.8667217 C447.601461,95.8134075 449.440112,96.2861029 451.590443,96.2861029 C452.640727,96.2861029 453.371472,96.1993341 453.780061,96.0167313 L453.780061,86.5110218 L453.512907,86.5110218 C450.079187,87.0070281 447.338236,86.424253 445.308386,84.7847124 C443.273298,83.127041 442.254445,80.3996535 442.254445,76.5921895 L442.254445,60.9841771 L431.057533,60.9841771 L431.057533,95.7434745 Z M410.804873,59.8924451 C407.963084,59.8924451 405.401545,60.35478 403.113708,61.2885152 C400.819323,62.2080048 398.868049,63.5030606 397.242859,65.1529617 C395.615051,66.8028628 394.359164,68.7532168 393.462101,70.9962534 C392.571586,73.2366999 392.126329,75.6701098 392.126329,78.2938928 C392.126329,80.9189709 392.565038,83.3549708 393.429362,85.5915322 C394.294994,87.8358638 395.536476,89.7784475 397.134164,91.437414 C398.73971,93.0795447 400.67396,94.3758956 402.938224,95.3044506 C405.205108,96.2317105 407.737836,96.7005207 410.529861,96.7005207 C412.913298,96.7005207 415.066248,96.3715765 417.014903,95.7072129 C418.966178,95.05839 420.650298,94.1376053 422.063335,92.9591045 C423.481611,91.785784 424.631422,90.3819435 425.503603,88.7488782 C426.367926,87.119698 426.940213,85.333816 427.212605,83.3899373 L416.436069,83.3899373 C416.066767,84.9699054 415.419834,86.2248144 414.480865,87.1572546 C413.540587,88.0832195 412.266365,88.5507346 410.66082,88.5507346 C408.236786,88.5507346 406.433494,87.6338351 405.239157,85.797446 C404.052677,83.963647 403.452889,81.4615992 403.452889,78.2938928 C403.452889,75.1689232 404.052677,72.6979567 405.239157,70.8848786 C406.433494,69.083456 408.236786,68.1691466 410.66082,68.1691466 C414.234664,68.1691466 416.272371,70.1661226 416.777869,74.1523044 L427.484998,74.1523044 C427.401185,72.1553283 426.946761,70.2917431 426.149226,68.5511881 C425.349073,66.8028628 424.225453,65.2876475 422.788843,63.9938868 C421.345685,62.7053062 419.601324,61.6990479 417.567546,60.9841771 C415.529839,60.2537656 413.274742,59.8924451 410.804873,59.8924451 L410.804873,59.8924451 Z M371.248999,67.1551179 C373.350876,67.1551179 375.062497,67.7184672 376.36422,68.8581163 C377.671181,69.9861099 378.320733,71.4987351 378.320733,73.4089423 L378.320733,77.5440555 C377.589987,77.1918003 376.733522,76.8550858 375.750027,76.5624032 C374.767842,76.2684255 373.701843,75.9899885 372.553341,75.7128466 C370.40563,75.2090699 368.848539,74.6379503 367.883378,73.9761768 C366.927384,73.3273538 366.44153,72.3405213 366.44153,71.0221545 C366.44153,69.6286745 366.902502,68.6314815 367.819209,68.0370509 C368.734605,67.4542758 369.87525,67.1551179 371.248999,67.1551179 L371.248999,67.1551179 Z M367.679083,60.0944738 C365.937342,60.0944738 364.326558,60.3198135 362.836255,60.7691978 C361.35512,61.2250575 360.079589,61.9075519 359.025377,62.8063206 C357.979022,63.7180399 357.146129,64.8291977 356.554199,66.1397942 C355.963578,67.4542758 355.664993,68.9630158 355.664993,70.6893252 C355.664993,72.587877 356.01858,74.1885659 356.723134,75.4719662 C357.439475,76.7644319 358.408564,77.8328529 359.647427,78.6629837 C360.881052,79.5047699 362.311114,80.1535929 363.938922,80.6055674 C365.561492,81.0562468 367.295376,81.3916662 369.123551,81.6234812 C372.410597,82.0327188 374.728554,82.4743329 376.061707,82.9806997 C377.381764,83.475411 378.052269,84.3159022 378.052269,85.4892227 C378.052269,86.6223966 377.671181,87.5341158 376.915554,88.2140201 C376.163854,88.8861541 374.938087,89.2241636 373.2448,89.2241636 C371.454604,89.2241636 370.107045,88.8408271 369.190339,88.071564 C368.277562,87.3087761 367.726228,86.1963232 367.538958,84.7445657 L357.248276,84.7445657 C357.290183,86.3711557 357.651627,87.9161573 358.344395,89.3588494 C359.025377,90.8054268 360.021967,92.0797617 361.328928,93.1714937 C362.631961,94.2528653 364.267627,95.1127823 366.233307,95.7434745 C368.208154,96.381937 370.519563,96.7005207 373.176702,96.7005207 C375.825983,96.7005207 378.069294,96.45187 379.904016,95.9791746 C381.73219,95.5064793 383.290591,94.7916085 384.57136,93.8410375 C386.087854,92.7583709 387.206236,91.3791365 387.934362,89.7033343 C388.666418,88.0275321 389.03441,86.1043742 389.03441,83.9273855 L389.03441,66.4091658 C389.03441,65.0014402 389.118223,63.905823 389.277992,63.1197241 C389.432522,62.3297401 389.765156,61.7676859 390.269344,61.4581675 L390.269344,60.9841771 L379.42209,60.9841771 C379.144459,61.3364323 378.913973,61.8492744 378.73587,62.5058677 C378.551219,63.1598708 378.390141,63.9459697 378.256564,64.8499186 L378.120367,64.8499186 C377.064846,63.395571 375.725145,62.2390862 374.097337,61.3830543 C372.472147,60.5257274 370.334912,60.0944738 367.679083,60.0944738 L367.679083,60.0944738 Z M297.850951,95.7434745 L308.55677,95.7434745 L308.55677,90.7847059 L308.764993,90.7847059 C309.862421,92.6016691 311.27022,94.0469514 312.98839,95.1373884 C314.70394,96.2161698 316.839865,96.7652735 319.406643,96.7652735 C321.741625,96.7652735 323.750521,96.2161698 325.414997,95.1373884 C327.086022,94.0469514 328.381197,92.552457 329.292665,90.648725 L329.43148,90.648725 C330.80654,92.7790918 332.422562,94.3279785 334.279547,95.3044506 C336.124745,96.2770375 338.20174,96.7652735 340.492196,96.7652735 C342.456566,96.7652735 344.198308,96.4492799 345.705635,95.8134075 C347.212962,95.1775351 348.46754,94.2878318 349.454964,93.131347 C350.437149,91.972272 351.175752,90.5839722 351.683869,88.9573821 C352.182819,87.328202 352.439497,85.5358448 352.439497,83.591966 L352.439497,60.9841771 L341.245204,60.9841771 L341.245204,81.6234812 C341.245204,83.522033 340.841854,84.985446 340.0417,85.9968846 C339.241547,87.0186836 337.994826,87.5341158 336.29892,87.5341158 C334.521819,87.5341158 333.144141,86.8749324 332.17767,85.5591558 C331.217748,84.2472642 330.734513,82.5520362 330.734513,80.4644063 L330.734513,60.9841771 L319.548078,60.9841771 L319.548078,81.6234812 C319.548078,83.522033 319.144727,84.985446 318.341954,85.9968846 C317.54311,87.0186836 316.29377,87.5341158 314.603102,87.5341158 C312.858741,87.5341158 311.498087,86.8749324 310.515902,85.5591558 C309.529788,84.2472642 309.042624,82.5520362 309.042624,80.4644063 L309.042624,60.9841771 L297.850951,60.9841771 L297.850951,95.7434745 L297.850951,95.7434745 Z" id="path22" sketch:type="MSShapeGroup"></path>
        </g>
    </g>
</svg>
