<?xml version="1.0" encoding="UTF-8" standalone="no"?>
<svg width="495px" height="268px" viewBox="0 0 495 268" version="1.1" xmlns="http://www.w3.org/2000/svg" xmlns:xlink="http://www.w3.org/1999/xlink" xmlns:sketch="http://www.bohemiancoding.com/sketch/ns">
    <!-- Generator: Sketch 3.3.3 (12081) - http://www.bohemiancoding.com/sketch -->
    <title>Slice 1</title>
    <desc>Created with Sketch.</desc>
    <defs></defs>
    <g id="Page-1" stroke="none" stroke-width="1" fill="none" fill-rule="evenodd" sketch:type="MSPage">
        <g id="g16-copy" sketch:type="MSLayerGroup" transform="translate(247.733325, 133.799995) scale(1, -1) translate(-247.733325, -133.799995) translate(0.733331, 0.533331)" fill="#211D1D">
            <path d="M370.866657,11.7986664 C369.513324,13.6387997 368.839991,16.0445329 368.839991,19.0294662 C368.839991,21.9590661 369.455991,24.4054661 370.693324,26.359066 C371.921324,28.319066 373.798657,29.2975993 376.317324,29.2975993 C378.649324,29.2975993 380.398657,28.3565326 381.589324,26.4975993 C382.77599,24.6351994 383.374657,22.1710661 383.374657,19.0950662 C383.374657,15.9778663 382.77599,13.5190663 381.589324,11.7215997 C380.398657,9.92946642 378.691991,9.03359977 376.454657,9.03359977 C374.078657,9.03359977 372.215991,9.95079975 370.866657,11.7986664 L370.866657,11.7986664 Z M385.921324,1.31639997 C387.810657,2.17626661 389.414657,3.42839991 390.73999,5.05493321 C392.066657,6.6814665 393.089324,8.67373312 393.81599,11.0309331 C394.538657,13.3778663 394.894657,16.0445329 394.894657,19.0294662 C394.894657,21.7257328 394.538657,24.2267994 393.81599,26.5403993 C393.089324,28.8387993 392.066657,30.8445326 390.73999,32.5387992 C389.414657,34.2362658 387.810657,35.5685324 385.921324,36.5231991 C384.03199,37.4789324 381.926657,37.9617324 379.595991,37.9617324 C377.131991,37.9617324 375.098657,37.4934657 373.493324,36.5617324 C371.877324,35.6257324 370.517324,34.3986658 369.397324,32.8549325 L369.189324,32.8549325 L369.189324,51.0909321 L357.803991,51.0909321 L357.803991,1.1429333 L368.699991,1.1429333 L368.699991,5.68413319 L368.839991,5.68413319 C369.958657,3.82426657 371.445324,2.41226661 373.313324,1.4565333 C375.175991,0.501866654 377.295991,0.0231999994 379.670657,0.0231999994 C381.95199,0.0231999994 384.03199,0.459066655 385.921324,1.31639997 L385.921324,1.31639997 Z M331.086658,8.40706646 C330.151992,9.01226644 329.683992,10.0351997 329.683992,11.484133 C329.683992,12.837733 330.173325,13.842933 331.151992,14.5231996 C332.126658,15.1898663 333.713325,15.7923996 335.901325,16.2986663 C337.059992,16.5789329 338.150658,16.8669329 339.151992,17.1737329 C340.154658,17.4747996 341.025325,17.8138662 341.773325,18.1841329 L341.773325,13.9267997 C341.773325,11.9695997 341.105325,10.4095997 339.781325,9.24559977 C338.449325,8.08053313 336.714658,7.49759981 334.577325,7.49759981 C333.178658,7.49759981 332.011992,7.80026647 331.086658,8.40706646 L331.086658,8.40706646 Z M337.473325,1.56533329 C339.129325,2.44453327 340.485325,3.63093324 341.557325,5.12679987 L341.702658,5.12679987 C341.838658,4.19346656 342.003991,3.39613325 342.187991,2.71119993 C342.374658,2.03879995 342.607991,1.51386663 342.889325,1.1429333 L353.925324,1.1429333 L353.925324,1.62946663 C353.410658,1.96013328 353.069325,2.5242666 352.913325,3.34146658 C352.749325,4.1575999 352.669325,5.2841332 352.669325,6.73093317 L352.669325,24.7469327 C352.669325,26.9811993 352.295991,28.9625326 351.546658,30.6895992 C350.805325,32.4119992 349.661325,33.8359992 348.125325,34.9573325 C346.822658,35.9306658 345.238658,36.6573324 343.378658,37.1505324 C341.515991,37.6333324 339.237325,37.8854657 336.531992,37.8854657 C333.831992,37.8854657 331.475992,37.5614657 329.474658,36.9026657 C327.474658,36.2587991 325.805325,35.3734658 324.479992,34.2505325 C323.153325,33.1385325 322.141325,31.8317325 321.437325,30.3426659 C320.742659,28.8453326 320.370659,27.266666 320.327992,25.5895994 L330.806658,25.5895994 C330.993325,27.085466 331.547992,28.2265326 332.478658,29.0119993 C333.410658,29.8026659 334.782658,30.2015992 336.602658,30.2015992 C338.322658,30.2015992 339.571992,29.8530659 340.334658,29.1546659 C341.105325,28.454666 341.495991,27.5291993 341.495991,26.3587993 C341.495991,25.1453327 340.813325,24.2838661 339.463992,23.7759994 C338.114658,23.2639994 335.761325,22.8015994 332.407992,22.3759994 C330.547992,22.1494661 328.791992,21.7983995 327.135992,21.3291995 C325.483992,20.8639995 324.030659,20.1983995 322.771992,19.3401328 C321.515992,18.4786662 320.518659,17.3854662 319.799992,16.0521329 C319.078659,14.7254663 318.713325,13.0811997 318.713325,11.1317331 C318.713325,9.36146643 319.014659,7.79999981 319.626659,6.45306651 C320.234659,5.10519987 321.066659,3.95626657 322.141325,3.02813326 C323.214659,2.09586661 324.502659,1.39839997 326.013325,0.92653331 C327.531992,0.466666655 329.173325,0.231733328 330.938658,0.231733328 C333.649325,0.231733328 335.818658,0.674533316 337.473325,1.56506663 L337.473325,1.56533329 Z M303.279992,1.1429333 L314.801325,1.1429333 L314.801325,51.0909321 L303.279992,51.0909321 L303.279992,1.1429333 Z M471.146655,70.0042649 C470.205322,70.6082649 469.751988,71.6349315 469.751988,73.0802648 C469.751988,74.4229315 470.234655,75.4362648 471.222655,76.1135981 C472.194655,76.7855981 473.771988,77.3762647 475.966655,77.9029314 C477.129321,78.1722647 478.215988,78.4642647 479.211988,78.765598 C480.215988,79.0722647 481.079988,79.4082647 481.834655,79.7802647 L481.834655,75.5202648 C481.834655,73.5629315 481.163988,72.0002649 479.837321,70.8375982 C478.517321,69.6775983 476.774655,69.0895983 474.643988,69.0895983 C473.234655,69.0895983 472.077322,69.3922649 471.146655,70.0042649 L471.146655,70.0042649 Z M477.535988,63.1482651 C479.189321,64.0402651 480.553321,65.2255984 481.619988,66.7215983 L481.766655,66.7215983 C481.906655,65.7815984 482.065321,64.980265 482.253321,64.3029317 C482.431988,63.6349317 482.679988,63.1095984 482.946655,62.7309318 L493.986654,62.7309318 L493.986654,63.2202651 C493.471988,63.5469317 493.135988,64.1242651 492.975988,64.9375984 C492.810654,65.7495984 492.730654,66.880265 492.730654,68.3255983 L492.730654,86.3442645 C492.730654,88.5789311 492.357321,90.5575977 491.607988,92.2842644 C490.863988,94.0042643 489.733321,95.4282643 488.189321,96.5415976 C486.893321,97.5229309 485.291988,98.2495975 483.437321,98.7469309 C481.569321,99.2335975 479.290655,99.4802642 476.597321,99.4802642 C473.897321,99.4802642 471.541322,99.1522642 469.542655,98.4989309 C467.531988,97.8522642 465.870655,96.9682642 464.542655,95.8482643 C463.217322,94.734931 462.206655,93.4162643 461.503988,91.930931 C460.806655,90.4415977 460.437322,88.8589311 460.385322,87.1815978 L470.861322,87.1815978 C471.047988,88.6789311 471.607988,89.8122644 472.541322,90.6082644 C473.469321,91.3962644 474.846655,91.7962644 476.662655,91.7962644 C478.387988,91.7962644 479.629321,91.4455977 480.402655,90.7455977 C481.163988,90.0535977 481.550655,89.1149311 481.550655,87.9482645 C481.550655,86.7429312 480.882655,85.8762645 479.527988,85.3695979 C478.178655,84.8575979 475.818655,84.3855979 472.475988,83.9749312 C470.611988,83.7349312 468.847988,83.3895979 467.194655,82.9202646 C465.538655,82.4575979 464.085322,81.7949313 462.829322,80.929598 C461.569322,80.0722647 460.587988,78.9762647 459.857322,77.6535981 C459.137322,76.3229314 458.779989,74.6815981 458.779989,72.7269315 C458.779989,70.9535982 459.078655,69.3922649 459.683989,68.0429316 C460.291988,66.692265 461.130655,65.5455984 462.206655,64.6255984 C463.274655,63.6922651 464.563988,62.9909318 466.082655,62.5295984 C467.589322,62.0589318 469.229322,61.8242651 471.006655,61.8242651 C473.699988,61.8242651 475.883988,62.2695984 477.535988,63.1482651 L477.535988,63.1482651 Z M443.551989,62.7309318 L454.938655,62.7309318 L454.938655,98.4989309 L443.551989,98.4989309 L443.551989,62.7309318 Z M443.551989,103.464264 L454.938655,103.464264 L454.938655,112.682931 L443.551989,112.682931 L443.551989,103.464264 Z M415.10799,73.3495982 C413.881323,75.1682648 413.266656,77.6389314 413.266656,80.761598 C413.266656,83.7775979 413.889323,86.2429312 415.15199,88.1295978 C416.40799,90.0175977 418.17599,90.9562644 420.455989,90.9562644 C421.715989,90.9562644 422.798656,90.7002644 423.709323,90.1895977 C424.617323,89.6749311 425.383989,88.9602644 426.014656,88.0602645 C426.639989,87.1522645 427.105323,86.0562645 427.414656,84.7789312 C427.710656,83.4935979 427.863989,82.1122646 427.863989,80.625598 C427.863989,77.6895981 427.191989,75.2829315 425.874656,73.4149315 C424.541323,71.5615982 422.697323,70.6269316 420.318656,70.6269316 C418.08399,70.6269316 416.349323,71.5362649 415.10799,73.3495982 L415.10799,73.3495982 Z M423.635989,63.1895984 C425.429323,64.2349317 426.855989,65.6869317 427.929323,67.560265 L428.071989,67.560265 L428.071989,62.7309318 L438.967989,62.7309318 L438.967989,112.682931 L427.586656,112.682931 L427.586656,94.4562643 L427.378656,94.4562643 C426.302656,95.9429309 424.993323,97.1655976 423.462656,98.1162642 C421.922656,99.0735975 419.889323,99.5602642 417.386656,99.5602642 C415.050656,99.5602642 412.93199,99.0882642 411.02399,98.1549309 C409.109323,97.2229309 407.47599,95.9282643 406.105323,94.2735976 C404.72399,92.622931 403.65599,90.6322644 402.885323,88.3069311 C402.121323,85.9735979 401.733323,83.4135979 401.733323,80.6282647 C401.733323,77.6415981 402.121323,74.9709315 402.885323,72.6189315 C403.65599,70.2722649 404.742657,68.2815983 406.141323,66.652265 C407.534656,65.0189317 409.182656,63.7735984 411.09599,62.9149318 C413.006656,62.0549318 415.093323,61.6229318 417.386656,61.6229318 C419.754656,61.6229318 421.845323,62.1482651 423.635989,63.1922651 L423.635989,63.1895984 Z M373.242657,84.4615979 C373.615991,86.6055978 374.382657,88.3042645 375.549324,89.5615978 C376.717324,90.8162644 378.387991,91.4455977 380.578657,91.4455977 C382.43999,91.4455977 383.97599,90.8162644 385.189324,89.5615978 C386.40399,88.3042645 387.121324,86.6055978 387.35199,84.4615979 L373.242657,84.4615979 Z M387.250657,62.5295984 C389.085324,63.0842651 390.754657,63.8935984 392.245324,64.972265 C393.829323,66.0415983 395.134657,67.3109317 396.15199,68.7802649 C397.178657,70.2482649 397.88399,71.7949315 398.250657,73.4149315 L387.142657,73.4149315 C386.63199,72.3015982 385.886657,71.4282649 384.90799,70.7989316 C383.925324,70.1842649 382.698657,69.8629316 381.209324,69.8629316 C378.826657,69.8629316 376.995991,70.5549316 375.685324,71.9495982 C374.382657,73.3495982 373.545324,75.2629315 373.173324,77.6895981 L398.87999,77.6895981 C398.930657,81.3162646 398.430657,84.6309312 397.37999,87.6375978 C396.33199,90.6415977 394.73199,93.1215977 392.594657,95.0735976 C391.057324,96.4762643 389.273324,97.5669309 387.250657,98.3575975 C385.22399,99.1522642 382.93199,99.5575975 380.366657,99.5575975 C377.621324,99.5575975 375.134657,99.0709309 372.897324,98.1135975 C370.659991,97.1629309 368.722657,95.8335976 367.095991,94.1335976 C365.469324,92.434931 364.211991,90.4269311 363.322658,88.1295978 C362.437324,85.8175979 361.997324,83.3389312 361.997324,80.689598 C361.997324,77.9909314 362.437324,75.4682648 363.322658,73.1455982 C364.211991,70.8055982 365.469324,68.8015983 367.095991,67.092265 C368.722657,65.4055984 370.730657,64.0735984 373.102657,63.1242651 C375.475991,62.1669318 378.133324,61.6909318 381.069324,61.6909318 C383.346657,61.6909318 385.41199,61.9615985 387.250657,62.5295984 L387.250657,62.5295984 Z M303.281326,62.7309318 L314.665325,62.7309318 L314.665325,82.7802646 C314.665325,84.9242645 315.173325,86.6709312 316.169325,88.0215978 C317.169325,89.3775978 318.558659,90.0535977 320.329325,90.0535977 C322.046659,90.0535977 323.319992,89.5242644 324.133325,88.4762645 C324.945325,87.4295978 325.353325,85.9242645 325.353325,83.9749312 L325.353325,62.7309318 L336.741325,62.7309318 L336.741325,82.7802646 C336.741325,84.9242645 337.230658,86.6709312 338.209325,88.0215978 C339.187992,89.3775978 340.587991,90.0535977 342.401325,90.0535977 C344.129325,90.0535977 345.387991,89.5242644 346.203991,88.4762645 C347.027991,87.4295978 347.427991,85.9242645 347.427991,83.9749312 L347.427991,62.7309318 L358.819991,62.7309318 L358.819991,85.9989312 C358.819991,87.9989311 358.561324,89.8415978 358.050658,91.518931 C357.531991,93.1935977 356.779991,94.618931 355.775991,95.8109309 C354.775991,96.9935976 353.505324,97.9215976 351.973325,98.5709309 C350.435991,99.2175975 348.665325,99.5575975 346.665325,99.5575975 C344.333325,99.5575975 342.227991,99.0455975 340.342658,98.0455975 C338.450658,97.0495976 336.809325,95.4495976 335.421325,93.2602643 L335.273325,93.2602643 C334.343992,95.2202643 333.027992,96.7495976 331.331992,97.8749309 C329.627992,98.9882642 327.590658,99.5575975 325.218659,99.5575975 C322.606659,99.5575975 320.426659,98.9882642 318.685325,97.8749309 C316.939992,96.7495976 315.507992,95.2642643 314.383992,93.3962643 L314.179992,93.3962643 L314.179992,98.4989309 L303.281326,98.4989309 L303.281326,62.7309318 Z M398.877323,116.708264 C399.91999,116.820264 400.701323,116.95493 401.21599,117.09893 L401.21599,125.408264 C400.989323,125.408264 400.63599,125.392264 400.16799,125.369597 C399.71199,125.348264 399.218657,125.333597 398.70399,125.333597 C397.48799,125.333597 396.51999,125.572264 395.80399,126.036264 C395.077323,126.501597 394.71999,127.440263 394.71999,128.83093 L394.71999,145.59493 L401.21599,145.59493 L401.21599,152.72293 L394.71999,152.72293 L394.71999,164.038929 L383.613324,164.038929 L383.613324,152.72293 L378.866657,152.72293 L378.866657,145.59493 L383.613324,145.59493 L383.613324,126.381597 C383.613324,124.47493 383.893324,122.877597 384.454657,121.600264 C385.009324,120.317597 385.797324,119.308264 386.829324,118.564264 C387.85199,117.820264 389.049324,117.292264 390.42399,116.99093 C391.798657,116.685597 393.32399,116.54293 395.001323,116.54293 C396.534657,116.54293 397.833323,116.59093 398.877323,116.708264 L398.877323,116.708264 Z M363.842658,116.95493 L375.227991,116.95493 L375.227991,152.72293 L363.842658,152.72293 L363.842658,116.95493 Z M363.842658,157.677596 L375.227991,157.677596 L375.227991,166.900262 L363.842658,166.900262 L363.842658,157.677596 Z M303.281326,116.95493 L314.665325,116.95493 L314.665325,137.004263 C314.665325,139.14293 315.173325,140.892263 316.169325,142.244263 C317.169325,143.593596 318.558659,144.273596 320.329325,144.273596 C322.046659,144.273596 323.319992,143.745596 324.133325,142.697596 C324.945325,141.65093 325.353325,140.14693 325.353325,138.19093 L325.353325,116.95493 L336.741325,116.95493 L336.741325,137.004263 C336.741325,139.14293 337.230658,140.892263 338.209325,142.244263 C339.187992,143.593596 340.587991,144.273596 342.401325,144.273596 C344.129325,144.273596 345.387991,143.745596 346.203991,142.697596 C347.027991,141.65093 347.427991,140.14693 347.427991,138.19093 L347.427991,116.95493 L358.819991,116.95493 L358.819991,140.212263 C358.819991,142.22293 358.561324,144.05893 358.050658,145.73493 C357.531991,147.412263 356.779991,148.840263 355.775991,150.03493 C354.775991,151.217596 353.505324,152.136263 351.973325,152.79493 C350.435991,153.446929 348.665325,153.770929 346.665325,153.770929 C344.333325,153.770929 342.227991,153.269596 340.342658,152.265596 C338.450658,151.261596 336.809325,149.673596 335.421325,147.48293 L335.273325,147.48293 C334.343992,149.43493 333.027992,150.973596 331.331992,152.092263 C329.627992,153.212263 327.590658,153.770929 325.218659,153.770929 C322.606659,153.770929 320.426659,153.212263 318.685325,152.092263 C316.939992,150.973596 315.507992,149.484263 314.383992,147.621596 L314.179992,147.621596 L314.179992,152.72293 L303.281326,152.72293 L303.281326,116.95493 Z M0.0679999983,152.768263 L0.0679999983,1.16826664 L151.64133,1.16826664 L151.64133,39.0682657 L37.9453324,39.0682657 L37.9453324,152.765596 L0.0679999983,152.768263 Z M227.441328,1.16826664 L227.441328,114.86693 L113.74133,114.86693 L113.74133,228.562928 L0.0386666657,228.562928 L0.0386666657,266.462927 L151.638663,266.462927 L151.638663,152.765596 L265.33466,152.765596 L265.33466,1.1789333 L227.438661,1.1789333 L227.441328,1.16826664 Z" id="path22" sketch:type="MSShapeGroup"></path>
        </g>
    </g>
</svg>
