<?xml version="1.0" encoding="UTF-8" standalone="no"?>
<svg width="52px" height="52px" viewBox="0 0 52 52" version="1.1" xmlns="http://www.w3.org/2000/svg" xmlns:xlink="http://www.w3.org/1999/xlink" xmlns:sketch="http://www.bohemiancoding.com/sketch/ns">
    <!-- Generator: Sketch 3.3.2 (12043) - http://www.bohemiancoding.com/sketch -->
    <title>noun_151031_cc</title>
    <desc>Created with Sketch.</desc>
    <defs></defs>
    <g id="Page-1" stroke="none" stroke-width="1" fill="none" fill-rule="evenodd" sketch:type="MSPage">
        <g id="noun_151031_cc" sketch:type="MSLayerGroup" fill="#000000">
            <path d="M32,0 L30,0 L0,0 L0,18 L0,20 L0,52 L30,52 L32,52 L52,52 L52,42 L52,40 L52,0 L32,0 L32,0 Z M2,2 L30,2 L30,18 L2,18 L2,2 L2,2 Z M30,50 L2,50 L2,20 L30,20 L30,40 L30,42 L30,50 L30,50 Z M50,50 L32,50 L32,42 L50,42 L50,50 L50,50 Z M32,40 L32,20 L32,18 L32,2 L50,2 L50,40 L32,40 L32,40 Z" id="Shape" sketch:type="MSShapeGroup"></path>
        </g>
    </g>
</svg>