<?xml version="1.0" encoding="UTF-8" standalone="no"?>
<svg
   xmlns:sketch="http://www.bohemiancoding.com/sketch/ns"
   xmlns:dc="http://purl.org/dc/elements/1.1/"
   xmlns:cc="http://creativecommons.org/ns#"
   xmlns:rdf="http://www.w3.org/1999/02/22-rdf-syntax-ns#"
   xmlns:svg="http://www.w3.org/2000/svg"
   xmlns="http://www.w3.org/2000/svg"
   xmlns:sodipodi="http://sodipodi.sourceforge.net/DTD/sodipodi-0.dtd"
   xmlns:inkscape="http://www.inkscape.org/namespaces/inkscape"
   width="84"
   height="76"
   viewBox="0 0 84 76"
   version="1.1"
   id="svg2"
   inkscape:version="0.91pre4 r13712"
   sodipodi:docname="icon_spreadsheet.svg">
  <metadata
     id="metadata25">
    <rdf:RDF>
      <cc:Work
         rdf:about="">
        <dc:format>image/svg+xml</dc:format>
        <dc:type
           rdf:resource="http://purl.org/dc/dcmitype/StillImage" />
        <dc:title>noun_52455_cc</dc:title>
      </cc:Work>
    </rdf:RDF>
  </metadata>
  <sodipodi:namedview
     pagecolor="#ffffff"
     bordercolor="#666666"
     borderopacity="1"
     objecttolerance="10"
     gridtolerance="10"
     guidetolerance="10"
     inkscape:pageopacity="0"
     inkscape:pageshadow="2"
     inkscape:window-width="1233"
     inkscape:window-height="817"
     id="namedview23"
     showgrid="false"
     fit-margin-top="0"
     fit-margin-left="0"
     fit-margin-right="0"
     fit-margin-bottom="0"
     inkscape:zoom="3.1052632"
     inkscape:cx="42"
     inkscape:cy="38"
     inkscape:window-x="0"
     inkscape:window-y="0"
     inkscape:window-maximized="0"
     inkscape:current-layer="noun_52455_cc" />
  <!-- Generator: Sketch 3.3.2 (12043) - http://www.bohemiancoding.com/sketch -->
  <title
     id="title4">noun_52455_cc</title>
  <desc
     id="desc6">Created with Sketch.</desc>
  <defs
     id="defs8" />
  <g
     id="Page-1"
     sketch:type="MSPage"
     style="fill:none;fill-rule:evenodd;stroke:none;stroke-width:1">
    <g
       id="noun_52455_cc"
       sketch:type="MSLayerGroup"
       style="fill:#000000">
      <path
         d="M 0,0 0,76 84,76 84,0 0,0 0,0 Z m 43,2 19,0 0,11 -19,0 0,-11 0,0 z M 21,74 2,74 2,63 l 19,0 0,11 0,0 z m 0,-12 -19,0 0,-11 19,0 0,11 0,0 z m 0,-12 -19,0 0,-11 19,0 0,11 0,0 z m 0,-12 -19,0 0,-11 19,0 0,11 0,0 z m 0,-12 -19,0 0,-11 19,0 0,11 0,0 z M 21,13 2,13 2,2 l 19,0 0,11 0,0 z m 21,61 -19,0 0,-11 19,0 0,11 0,0 z m 0,-12 -19,0 0,-11 19,0 0,11 0,0 z m 0,-12 -19,0 0,-11 19,0 0,11 0,0 z m 0,-12 -19,0 0,-11 19,0 0,11 0,0 z m 0,-12 -19,0 0,-11 19,0 0,11 0,0 z m 0,-13 -19,0 0,-11 19,0 0,11 0,0 z m 20,61 -19,0 0,-11 19,0 0,11 0,0 z m 0,-12 -19,0 0,-11 19,0 0,11 0,0 z m 0,-12 -19,0 0,-11 19,0 0,11 0,0 z m 20,24 -19,0 0,-11 19,0 0,11 0,0 z m 0,-12 -19,0 0,-11 19,0 0,11 0,0 z m 0,-12 -19,0 0,-11 19,0 0,11 0,0 z m 0,-12 -39,0 0,-23 39,0 0,23 0,0 z m 0,-25 -19,0 0,-11 19,0 0,11 0,0 z"
         id="Shape"
         sketch:type="MSShapeGroup"
         inkscape:connector-curvature="0" />
    </g>
  </g>
</svg>
