<?xml version="1.0" encoding="UTF-8" standalone="no"?>
<svg
   xmlns:dc="http://purl.org/dc/elements/1.1/"
   xmlns:cc="http://creativecommons.org/ns#"
   xmlns:rdf="http://www.w3.org/1999/02/22-rdf-syntax-ns#"
   xmlns:svg="http://www.w3.org/2000/svg"
   xmlns="http://www.w3.org/2000/svg"
   xmlns:sodipodi="http://sodipodi.sourceforge.net/DTD/sodipodi-0.dtd"
   xmlns:inkscape="http://www.inkscape.org/namespaces/inkscape"
   version="1.1"
   x="0px"
   y="0px"
   width="48px"
   height="48px"
   viewBox="0 0 48 48"
   enable-background="new 0 0 48 48"
   xml:space="preserve"
   id="svg2"
   inkscape:version="0.91pre4 r13712"
   sodipodi:docname="icon_share_twitter2.svg"><metadata
     id="metadata20"><rdf:RDF><cc:Work
         rdf:about=""><dc:format>image/svg+xml</dc:format><dc:type
           rdf:resource="http://purl.org/dc/dcmitype/StillImage" /><dc:title></dc:title></cc:Work></rdf:RDF></metadata><defs
     id="defs18" /><sodipodi:namedview
     pagecolor="#ffffff"
     bordercolor="#666666"
     borderopacity="1"
     objecttolerance="10"
     gridtolerance="10"
     guidetolerance="10"
     inkscape:pageopacity="0"
     inkscape:pageshadow="2"
     inkscape:window-width="1227"
     inkscape:window-height="892"
     id="namedview16"
     showgrid="false"
     inkscape:zoom="4.9166667"
     inkscape:cx="24"
     inkscape:cy="24"
     inkscape:window-x="0"
     inkscape:window-y="0"
     inkscape:window-maximized="0"
     inkscape:current-layer="svg2" /><g
     id="g4"><g
       id="g6"><g
         id="g8"><path
           fill="#7d7d7d"
           d="M40,4H8C5.8,4,4,5.8,4,8l0,32c0,2.2,1.8,4,4,4h32c2.2,0,4-1.8,4-4V8C44,5.8,42.2,4,40,4z M35.4,18.7c-0.1,9.2-6,15.6-14.8,16c-3.6,0.2-6.3-1-8.6-2.5c2.7,0.4,6-0.6,7.8-2.2c-2.6-0.3-4.2-1.6-4.9-3.8c0.8,0.1,1.6,0.1,2.3-0.1c-2.4-0.8-4.1-2.3-4.2-5.3c0.7,0.3,1.4,0.6,2.3,0.6c-1.8-1-3.1-4.7-1.6-7.2c2.6,2.9,5.8,5.3,11,5.6c-1.3-5.6,6.1-8.6,9.2-4.9c1.3-0.3,2.4-0.8,3.4-1.3c-0.4,1.3-1.2,2.2-2.2,2.9c1.1-0.1,2.1-0.4,2.9-0.8C37.5,16.9,36.4,17.9,35.4,18.7z"
           id="path10" /></g><g
         id="g12"><rect
           fill="none"
           width="48"
           height="48"
           id="rect14" /></g></g></g></svg>