<?xml version="1.0" encoding="UTF-8" standalone="no"?>
<svg
   xmlns:dc="http://purl.org/dc/elements/1.1/"
   xmlns:cc="http://creativecommons.org/ns#"
   xmlns:rdf="http://www.w3.org/1999/02/22-rdf-syntax-ns#"
   xmlns:svg="http://www.w3.org/2000/svg"
   xmlns="http://www.w3.org/2000/svg"
   xmlns:sodipodi="http://sodipodi.sourceforge.net/DTD/sodipodi-0.dtd"
   xmlns:inkscape="http://www.inkscape.org/namespaces/inkscape"
   version="1.1"
   x="0px"
   y="0px"
   viewBox="0 0 54.05019 50.425651"
   enable-background="new 0 0 100 100"
   xml:space="preserve"
   id="svg2"
   inkscape:version="0.91pre4 r13712"
   sodipodi:docname="noun_152706_cc.svg"
   width="54.05019"
   height="50.425652"><metadata
     id="metadata14"><rdf:RDF><cc:Work
         rdf:about=""><dc:format>image/svg+xml</dc:format><dc:type
           rdf:resource="http://purl.org/dc/dcmitype/StillImage" /><dc:title></dc:title></cc:Work></rdf:RDF></metadata><defs
     id="defs12" /><sodipodi:namedview
     pagecolor="#ffffff"
     bordercolor="#666666"
     borderopacity="1"
     objecttolerance="10"
     gridtolerance="10"
     guidetolerance="10"
     inkscape:pageopacity="0"
     inkscape:pageshadow="2"
     inkscape:window-width="1303"
     inkscape:window-height="825"
     id="namedview10"
     showgrid="false"
     inkscape:zoom="7.552"
     inkscape:cx="5.3714797"
     inkscape:cy="18.572615"
     inkscape:window-x="0"
     inkscape:window-y="0"
     inkscape:window-maximized="0"
     inkscape:current-layer="svg2"
     fit-margin-top="0"
     fit-margin-left="0"
     fit-margin-right="0"
     fit-margin-bottom="0" /><path
     d="m 47.258403,12.813872 c 0.75,0.02 1.226,-0.666 1.623,-1.068 0.436,-0.439 1.007,-0.935 1.507,-1.446 0.489,-0.501 2.75,-2.56 2.653,-3.333 -0.033,-0.249 -0.826,-0.974 -1.16,-1.283 -0.498,-0.465 -1.368,-1.269 -1.766,-1.71 -0.866,-0.953 -2.11,-2.244 -2.849,-2.858 -0.145,0.045 -0.237,0.138 -0.233,0.322 -0.074,0.465 0.154,2.025 -0.115,2.313 -15.218,0.071 -30.748,-0.142 -45.7739993,0.108 -0.19199998,7.844 -0.19299998,16.437 0,24.28 8.148,0.437 19.9629993,-1.85 23.2919993,3.529 0.742,1.201 1.236,2.936 1.159,4.814 -1.396,0.141 -4.21,-0.277 -5.22,0.217 0.035,0.884 1.047,1.336 1.623,1.816 3.276,2.738 7.158,5.275 10.436,8.023 0.611,0.512 3.281,2.93 4.172,2.886 0.453,-0.023 1.501,-0.905 2.086,-1.39 3.93,-3.283 7.768,-6.41 11.473,-9.521 0.602,-0.503 1.569,-1.014 1.623,-1.927 -1.317,-0.318 -3.433,0.1 -4.752,-0.214 -0.212,-14.779 -8.046,-22.523 -20.512,-25.991 6.38,-0.169 13.625,-0.092 20.512,-0.106 0.134,0.55 -0.291,2.336 0.222,2.539 z"
     id="path4"
     style="fill:none;stroke:#000;stroke-width:3;stroke-miterlimit:4;stroke-dasharray:none;stroke-opacity:1"
     inkscape:connector-curvature="0" /></svg>
