<?xml version="1.0" encoding="UTF-8" standalone="no"?>
<svg width="56px" height="52px" viewBox="0 0 56 52" version="1.1" xmlns="http://www.w3.org/2000/svg" xmlns:xlink="http://www.w3.org/1999/xlink" xmlns:sketch="http://www.bohemiancoding.com/sketch/ns">
    <!-- Generator: Sketch 3.3.2 (12043) - http://www.bohemiancoding.com/sketch -->
    <title>noun_151001_cc</title>
    <desc>Created with Sketch.</desc>
    <defs></defs>
    <g id="Page-1" stroke="none" stroke-width="1" fill="none" fill-rule="evenodd" sketch:type="MSPage">
        <g id="noun_151001_cc" sketch:type="MSLayerGroup" fill="#000000">
            <path d="M54,50 L54,0 L38,0 L38,50 L36,50 L36,14 L20,14 L20,50 L18,50 L18,28 L2,28 L2,50 L0,50 L0,52 L56,52 L56,50 L54,50 L54,50 Z M4,50 L4,30 L16,30 L16,50 L4,50 L4,50 Z M22,50 L22,16 L34,16 L34,50 L22,50 L22,50 Z M40,50 L40,2 L52,2 L52,50 L40,50 L40,50 Z" id="Shape" sketch:type="MSShapeGroup"></path>
        </g>
    </g>
</svg>